PathFileType	3	(X/Y/Z)	C:\Users\koon_\Desktop\
DataRate	CameraRate	NumFrames	NumMarkers	Units	OrigDataRate	OrigDataStartFrame	OrigNumFrames
100.0	100.0	4	27	mm	100.0	1427	3804	
Frame#	Time	get:LFHD			get:RFHD			get:LBHD			get:RBHD			get:C7			get:T10			get:CLAV			get:STRN			get:RBAK			get:LSHO			get:LUPA			get:LELB			get:LFRA			get:LWRA			get:LWRB			get:LFIN			get:RSHO			get:RUPA			get:RELB			get:RFRA			get:RWRA			get:RWRB			get:RFIN			get:LASI			get:RASI			get:LPSI			get:RPSI			
		X1	Y1	Z1	X2	Y2	Z2	X3	Y3	Z3	X4	Y4	Z4	X5	Y5	Z5	X6	Y6	Z6	X7	Y7	Z7	X8	Y8	Z8	X9	Y9	Z9	X10	Y10	Z10	X11	Y11	Z11	X12	Y12	Z12	X13	Y13	Z13	X14	Y14	Z14	X15	Y15	Z15	X16	Y16	Z16	X17	Y17	Z17	X18	Y18	Z18	X19	Y19	Z19	X20	Y20	Z20	X21	Y21	Z21	X22	Y22	Z22	X23	Y23	Z23	X24	Y24	Z24	X25	Y25	Z25	X26	Y26	Z26	X27	Y27	Z27	
1427	14.26	-104.65019	1494.8407	62.971905	-214.08723	1487.0743	-25.062487	-23.341757	1505.2478	-76.682831	-120.21621	1474.0654	-162.16899	-30.373827	1304.3544	-123.1172	27.205557	1120.9561	-201.41165	-140.87885	1180.8116	8.671031	-114.20078	987.11938	-2.591449	-75.054047	1238.2258	-211.26486	0.84576863	1287.8651	26.104637	28.034075	1179.1448	122.79758	-9.8330431	1009.2232	207.19533	-147.40938	1011.1558	251.88696	-229.98186	1004.0093	260.88162	-193.47189	934.67072	296.92853	-245.30933	996.88733	351.38632	-186.94379	1278.1843	-135.11125	-325.73071	1106.012	-159.99614	-370.93808	992.84729	-208.58362	-416.02521	1023.7204	-131.33328	-487.62711	979.90259	-3.5107462	-513.15839	917.17206	-46.195591	-575.0321	973.90741	-7.4655099	57.251266	849.7334	-1.6340883	-162.05452	837.76379	-155.2476	99.623131	912.17255	-232.83395	27.040382	907.91162	-287.6156
1428	14.27	-102.36878	1497.9952	62.759632	-212.94945	1490.0703	-23.876041	-22.845137	1508.5177	-78.003624	-120.75291	1477.2255	-162.24614	-30.02076	1307.1506	-124.54939	26.129366	1123.0315	-202.73238	-138.91302	1184.4945	9.0763865	-112.97646	990.6225	-1.3743669	-75.415688	1240.8892	-211.94464	3.460274	1291.225	24.191858	32.872494	1181.9573	120.13923	-2.3732669	1011.6222	204.09657	-139.92969	1015.6832	248.61743	-222.67989	1009.5552	257.62466	-186.83894	940.29926	294.41528	-238.12857	1003.4926	348.496	-186.66626	1281.2333	-134.85396	-324.53241	1107.6497	-159.83167	-368.98892	994.73645	-208.98236	-412.42789	1026.6165	-131.42317	-481.54764	985.30908	-1.7134192	-508.75909	922.44	-43.202423	-568.72327	980.63098	-4.4048214	57.811268	852.20691	-1.770723	-163.34348	840.20514	-152.87144	97.380905	914.53888	-233.49709	24.165998	910.37329	-287.39847
1429	14.28	-100.09934	1501.1058	62.448227	-211.7123	1493.064	-22.883308	-22.353014	1511.7329	-79.301659	-121.22797	1480.3116	-162.32646	-29.433395	1310.0273	-126.03655	24.980207	1125.0712	-204.01234	-136.92702	1188.1647	9.5592937	-111.8052	994.11676	-0.042236075	-75.788818	1243.5571	-212.58893	6.0260201	1294.4696	22.408865	37.74308	1184.8079	117.42516	4.9862452	1014.1354	201.21152	-132.36569	1020.2329	245.4899	-215.36708	1014.9955	254.40076	-180.02527	945.95074	292.03058	-231.0132	1010.0363	345.00204	-186.28403	1284.1597	-134.39653	-323.31677	1109.3417	-159.62016	-366.95444	996.59229	-209.34453	-408.83511	1029.4961	-131.45592	-475.51065	990.7746	-0.02097958	-504.17435	927.70856	-40.218533	-563.065	986.93719	-1.0176287	58.382191	854.65985	-1.8983239	-164.64183	842.5882	-150.33817	95.147903	916.8537	-234.10893	21.230705	912.75519	-287.13037
1430	14.29	-97.865616	1504.1715	62.162041	-210.50816	1495.9558	-21.876827	-21.774326	1514.9884	-80.437904	-121.48882	1483.4186	-162.48875	-29.267162	1312.568	-127.39674	23.879578	1127.0388	-205.2644	-134.90427	1191.8043	10.029331	-110.46547	997.54053	1.1857951	-76.215042	1246.2582	-213.27553	8.7162905	1297.8643	20.744057	42.80085	1187.7184	114.8988	12.37291	1016.6732	198.30617	-124.9024	1024.761	242.15912	-208.10234	1020.2817	251.11305	-173.11253	951.56488	289.78964	-224.06447	1016.6421	342.0777	-185.95677	1287.0845	-134.08746	-322.10358	1110.9679	-159.41403	-364.93063	998.45935	-209.70691	-405.03363	1032.3357	-131.23268	-469.65732	996.25525	1.4190444	-499.47882	932.85217	-37.17049	-557.45898	993.37469	2.0072918	59.014801	857.03253	-2.0577872	-165.94496	844.9389	-147.83875	92.911118	919.18652	-234.78506	18.347513	915.14166	-286.84677
